{
    "asset" : {
        "generator" : "Khronos glTF Blender I/O v0.9.33",
        "version" : "2.0"
    },
    "scene" : 0,
    "scenes" : [
        {
            "name" : "Scene",
            "nodes" : [
                0
            ]
        }
    ],
    "nodes" : [
        {
            "mesh" : 0,
            "name" : "Cube",
            "scale" : [
                0.10000000149011612,
                0.10000000149011612,
                0.10000000149011612
            ]
        }
    ],
    "materials" : [
        {
            "doubleSided" : true,
            "name" : "Hair",
            "pbrMetallicRoughness" : {
                "baseColorFactor" : [
                    0.0382043793797493,
                    0.45078590512275696,
                    1.862645149230957e-08,
                    1
                ],
                "metallicFactor" : 0,
                "roughnessFactor" : 0.5
            }
        },
        {
            "doubleSided" : true,
            "name" : "Clothes",
            "pbrMetallicRoughness" : {
                "baseColorFactor" : [
                    0.12743765115737915,
                    0.13013653457164764,
                    0.9999998807907104,
                    1
                ],
                "metallicFactor" : 0,
                "roughnessFactor" : 0.5
            }
        },
        {
            "doubleSided" : true,
            "name" : "Skin",
            "pbrMetallicRoughness" : {
                "baseColorFactor" : [
                    0.9822506904602051,
                    0.8307697772979736,
                    0.730461061000824,
                    1
                ],
                "metallicFactor" : 0,
                "roughnessFactor" : 0.5
            }
        },
        {
            "doubleSided" : true,
            "name" : "Dirt",
            "pbrMetallicRoughness" : {
                "baseColorFactor" : [
                    0.11193244904279709,
                    0,
                    0.0056053949519991875,
                    1
                ],
                "metallicFactor" : 0,
                "roughnessFactor" : 0.5
            }
        }
    ],
    "meshes" : [
        {
            "name" : "Cube",
            "primitives" : [
                {
                    "attributes" : {
                        "POSITION" : 0,
                        "NORMAL" : 1,
                        "TEXCOORD_0" : 2
                    },
                    "indices" : 3,
                    "material" : 0
                },
                {
                    "attributes" : {
                        "POSITION" : 4,
                        "NORMAL" : 5,
                        "TEXCOORD_0" : 6
                    },
                    "indices" : 7,
                    "material" : 1
                },
                {
                    "attributes" : {
                        "POSITION" : 8,
                        "NORMAL" : 9,
                        "TEXCOORD_0" : 10
                    },
                    "indices" : 11,
                    "material" : 2
                },
                {
                    "attributes" : {
                        "POSITION" : 12,
                        "NORMAL" : 13,
                        "TEXCOORD_0" : 14
                    },
                    "indices" : 15,
                    "material" : 3
                }
            ]
        }
    ],
    "accessors" : [
        {
            "bufferView" : 0,
            "componentType" : 5126,
            "count" : 52,
            "max" : [
                1,
                0.9999998807907104,
                1
            ],
            "min" : [
                -2,
                -2.000000476837158,
                -1
            ],
            "type" : "VEC3"
        },
        {
            "bufferView" : 1,
            "componentType" : 5126,
            "count" : 52,
            "type" : "VEC3"
        },
        {
            "bufferView" : 2,
            "componentType" : 5126,
            "count" : 52,
            "type" : "VEC2"
        },
        {
            "bufferView" : 3,
            "componentType" : 5123,
            "count" : 114,
            "type" : "SCALAR"
        },
        {
            "bufferView" : 4,
            "componentType" : 5126,
            "count" : 100,
            "max" : [
                2,
                -2.000000476837158,
                1
            ],
            "min" : [
                -3,
                -5.000000476837158,
                -1
            ],
            "type" : "VEC3"
        },
        {
            "bufferView" : 5,
            "componentType" : 5126,
            "count" : 100,
            "type" : "VEC3"
        },
        {
            "bufferView" : 6,
            "componentType" : 5126,
            "count" : 100,
            "type" : "VEC2"
        },
        {
            "bufferView" : 7,
            "componentType" : 5123,
            "count" : 198,
            "type" : "SCALAR"
        },
        {
            "bufferView" : 8,
            "componentType" : 5126,
            "count" : 142,
            "max" : [
                3,
                1,
                1
            ],
            "min" : [
                -4,
                -5.000000476837158,
                -1
            ],
            "type" : "VEC3"
        },
        {
            "bufferView" : 9,
            "componentType" : 5126,
            "count" : 142,
            "type" : "VEC3"
        },
        {
            "bufferView" : 10,
            "componentType" : 5126,
            "count" : 142,
            "type" : "VEC2"
        },
        {
            "bufferView" : 11,
            "componentType" : 5123,
            "count" : 240,
            "type" : "SCALAR"
        },
        {
            "bufferView" : 12,
            "componentType" : 5126,
            "count" : 124,
            "max" : [
                5,
                5,
                1
            ],
            "min" : [
                -5,
                -1,
                -1
            ],
            "type" : "VEC3"
        },
        {
            "bufferView" : 13,
            "componentType" : 5126,
            "count" : 124,
            "type" : "VEC3"
        },
        {
            "bufferView" : 14,
            "componentType" : 5126,
            "count" : 124,
            "type" : "VEC2"
        },
        {
            "bufferView" : 15,
            "componentType" : 5123,
            "count" : 192,
            "type" : "SCALAR"
        }
    ],
    "bufferViews" : [
        {
            "buffer" : 0,
            "byteLength" : 624,
            "byteOffset" : 0
        },
        {
            "buffer" : 0,
            "byteLength" : 624,
            "byteOffset" : 624
        },
        {
            "buffer" : 0,
            "byteLength" : 416,
            "byteOffset" : 1248
        },
        {
            "buffer" : 0,
            "byteLength" : 228,
            "byteOffset" : 1664
        },
        {
            "buffer" : 0,
            "byteLength" : 1200,
            "byteOffset" : 1892
        },
        {
            "buffer" : 0,
            "byteLength" : 1200,
            "byteOffset" : 3092
        },
        {
            "buffer" : 0,
            "byteLength" : 800,
            "byteOffset" : 4292
        },
        {
            "buffer" : 0,
            "byteLength" : 396,
            "byteOffset" : 5092
        },
        {
            "buffer" : 0,
            "byteLength" : 1704,
            "byteOffset" : 5488
        },
        {
            "buffer" : 0,
            "byteLength" : 1704,
            "byteOffset" : 7192
        },
        {
            "buffer" : 0,
            "byteLength" : 1136,
            "byteOffset" : 8896
        },
        {
            "buffer" : 0,
            "byteLength" : 480,
            "byteOffset" : 10032
        },
        {
            "buffer" : 0,
            "byteLength" : 1488,
            "byteOffset" : 10512
        },
        {
            "buffer" : 0,
            "byteLength" : 1488,
            "byteOffset" : 12000
        },
        {
            "buffer" : 0,
            "byteLength" : 992,
            "byteOffset" : 13488
        },
        {
            "buffer" : 0,
            "byteLength" : 384,
            "byteOffset" : 14480
        }
    ],
    "buffers" : [
        {
            "byteLength" : 14864,
            "uri" : "data:application/octet-stream;base64,"
        }
    ]
}
